<!-- Logo horizontal — marque ikadevis.
     Monochrome : la couleur est portée par fill="currentColor", donc héritée
     du contexte (sombre sur fond clair, blanc sur fond sombre). Ne pas coder
     de couleur en dur ici. -->
<svg xmlns="http://www.w3.org/2000/svg" viewBox="0 0 391.97 124.55" fill="currentColor" role="img" aria-label="ikadevis">
<polygon points="31.88 47.79 31.9 103.45 36.78 103.42 36.79 71.56 52.8 61.35 52.8 109.05 47.23 109.06 47.23 71.58 42.28 74.69 42.28 109.08 26.39 109.08 26.39 44.54 74.12 12.6 74.15 45.36 85.04 50.98 85 80.55 79.54 85.68 79.54 54.54 65.17 47.08 65.15 93.56 59.59 93.61 59.59 37.96 68.58 42.55 68.54 23.33 31.88 47.79"/>
  <path d="M60.34,101.32c-.66-.74-1.19-1.51-.52-2.42l5.88.02,3.22,4.06,20.14-19,15.35-14.47.12,7.63-23.38,21.96-12.35,11.73-8.45-9.51Z"/>
  <g>
    <g>
      <path d="M227.64,93.27c-9.57.55-16.75-6.81-16.63-16.13.12-9.14,7.29-16.17,16.53-15.61,3.88.24,7.25,1.61,10.26,4.48l.02-16.97,5.67-.05v43.92s-5.65-.03-5.65-.03l-.12-4c-2.81,2.8-6.12,4.14-10.09,4.37ZM222.29,86.76c3.82,1.96,8.32,1.44,11.57-1.07,3.62-2.8,4.86-7.42,3.43-11.69-1.35-4.01-5.13-6.9-9.41-7.12s-8.58,2.12-10.24,6.3c-2.02,5.09-.38,11,4.65,13.58Z"/>
      <path d="M198.38,93l-.14-4.19c-3.5,3.54-7.92,4.81-12.62,4.4-5.6-.49-10.37-3.78-12.66-8.95-1.9-4.29-1.95-8.99-.18-13.35,2.17-5.36,7.04-8.77,12.76-9.33,4.83-.47,9.24,1.09,12.71,4.43l.09-3.77h5.71s0,30.59,0,30.59l-5.67.16ZM188.05,87.91c2.78-.11,5.1-1.01,7.03-2.81,3.81-3.53,4.32-9.35,1.5-13.55s-8.2-5.85-13.04-3.84c-4.19,1.74-6.53,5.99-6.24,10.5.36,5.69,4.87,9.92,10.74,9.69Z"/>
      <path d="M265.87,88.38c3.91.06,7.16-1.38,9.43-4.7l4.38,2.83c-2.83,4.55-7.53,6.7-12.57,7.01-9.49.59-16.93-6.43-17.07-15.85-.13-9.1,6.82-16.17,15.99-16.06,9.63.11,16.17,7.75,15.36,17.49h-25.53c.48,5.26,4.56,9.19,10.01,9.27ZM275.63,74.6c-.92-4.99-5.02-7.81-9.64-7.86-4.86-.07-9.12,3.13-9.95,7.89l19.59-.03Z"/>
      <polygon points="169.93 92.83 162.53 92.91 150.93 79.81 146.19 84.26 146.08 92.9 140.41 92.92 140.4 49.09 146.15 49.09 146.16 77.02 160.82 62.32 168.44 62.35 154.78 75.94 169.93 92.83"/>
      <path d="M351.06,91.97c-5.52,2.93-14.01,1.79-18.64-2.96l3.01-3.88c4.27,4.26,13.06,4.8,14.13.57.35-1.36-.03-3.09-1.41-3.74l-4.18-1.97c-4.1-1.93-10.48-3.22-10.01-10.13.19-2.75,1.63-5.3,4.34-6.62,5.4-2.64,11.95-1.88,16.57,2.15l-3.03,3.75c-4.13-3.52-11.61-3.33-12.12.63-.19,1.49.58,2.91,2.06,3.55l8.58,3.7c3.62,1.56,5.49,5.04,4.93,8.87-.39,2.64-1.81,4.8-4.21,6.08Z"/>
      <polygon points="307.68 62.33 313.73 62.3 300.75 92.9 296.18 93.01 283.17 62.31 289.23 62.26 298.49 85.31 307.68 62.33"/>
      <polygon points="325.87 92.86 320.14 92.97 320.14 62.3 325.87 62.28 325.87 92.86"/>
      <polygon points="130.67 92.79 124.98 92.89 124.97 62.29 130.66 62.27 130.67 92.79"/>
    </g>
    <path d="M127.04,50.08c2.16-.46,4.08.9,4.44,2.84s-.72,4.01-2.84,4.42c-1.84.35-3.91-.71-4.34-2.65s.44-4.13,2.75-4.61Z"/>
    <path d="M322.27,50.08c2.2-.46,4.02.94,4.4,2.91s-.82,3.94-2.82,4.36-3.87-.72-4.33-2.61c-.48-2,.46-4.19,2.75-4.66Z"/>
  </g>
</svg>
